<?xml version="1.0" encoding="utf-8"?>
<!-- Generator: Adobe Illustrator 27.2.0, SVG Export Plug-In . SVG Version: 6.00 Build 0)  -->
<svg version="1.1" id="Layer_1" xmlns="http://www.w3.org/2000/svg" xmlns:xlink="http://www.w3.org/1999/xlink" x="0px" y="0px"
	 viewBox="0 0 259.5 177.3" style="enable-background:new 0 0 259.5 177.3;" xml:space="preserve">
<style type="text/css">
	.st0{fill:#FFFFFF;}
	.st1{fill:#FDD55A;}
	.st2{fill:#FAC361;}
	.st3{fill:#F9A660;}
	.st4{fill:#F68B57;}
	.st5{fill:#F37046;}
	.st6{fill:#F15F35;}
	.st7{fill:#FCD06A;}
	.st8{fill:#FCBD71;}
	.st9{fill:#F8A173;}
	.st10{fill:#F5846C;}
	.st11{fill:#EF6E60;}
	.st12{fill:#EE5F54;}
	.st13{fill:#FEC979;}
	.st14{fill:#FBB67F;}
	.st15{fill:#F69987;}
	.st16{fill:#F37D84;}
	.st17{fill:#EC6A7A;}
	.st18{fill:#E75F6F;}
	.st19{fill:#DA5F89;}
	.st20{fill:#CD609B;}
	.st21{fill:#C361A3;}
	.st22{fill:#DF668F;}
	.st23{fill:#D3659D;}
	.st24{fill:#E67496;}
	.st25{fill:#D96A9F;}
	.st26{fill:#CE65A4;}
	.st27{fill:#C771AE;}
</style>
<g>
	<g>
		<g>
			<g>
				<path class="st0" d="M25.3,166.4h-6.4v-3.1h-0.1c-1.6,2.8-4.5,3.8-7.2,3.8C4.1,167,1,160.4,1,153.6c0-8.6,4.9-12.8,10.4-12.8
					c4.2,0,6.2,2.3,7.2,3.9h0.1v-12h6.6V166.4z M13.2,161.6c4.2,0,5.8-3.5,5.8-7.2c0-4-1.1-8-5.6-8c-4.2,0-5.6,3.7-5.6,7.6
					C7.8,157,9,161.6,13.2,161.6z"/>
				<path class="st0" d="M36.8,138.5h-6.6v-6.1h6.6V138.5z M36.8,141.4v24.9h-6.6v-24.9H36.8z"/>
				<path class="st0" d="M64.8,141.4V165c0,4.3-0.3,11.5-12.6,11.5c-5.2,0-10.6-2.2-10.9-7.5h7.1c0.3,1.3,0.8,2.5,4.6,2.5
					c3.5,0,5.2-1.7,5.2-5.7v-3l-0.1-0.1c-1.1,1.9-2.7,3.8-6.7,3.8c-6,0-10.7-4.2-10.7-12.9c0-8.6,4.9-12.8,10.4-12.8
					c4.6,0,6.5,2.7,7.3,4.4h0.1v-3.7H64.8z M52.7,161c4.5,0,5.6-3.8,5.6-7.2c0-4-2-7.3-5.6-7.3c-2.4,0-5.2,1.8-5.2,7.6
					C47.5,157.2,48.8,161,52.7,161z"/>
				<path class="st0" d="M76.2,138.5h-6.6v-6.1h6.6V138.5z M76.2,141.4v24.9h-6.6v-24.9H76.2z"/>
				<path class="st0" d="M89.8,141.4h4.1v4.7h-4.1v13.6c0,1.5,0,2,2.7,2c0.4,0,0.9,0,1.4-0.1v5c-1,0-2.1,0.1-3.1,0.1H90
					c-5.7,0-6.7-2.2-6.7-5.4v-15.1h-3.4v-4.7h3.4v-6.8h6.6V141.4z"/>
				<path class="st0" d="M118.3,161.5c0,3,0.7,3.6,1.5,3.9v1h-7.1c-0.4-1.2-0.5-1.5-0.6-3c-1.5,1.5-3.6,3.6-8.1,3.6
					c-3.8,0-7.6-2.1-7.6-7.3c0-4.9,3.1-7.4,7.3-8l5.9-0.9c1-0.1,2.3-0.6,2.3-2c0-2.8-2.6-2.9-4.3-2.9c-3.3,0-3.8,2-4,3.5h-6.3
					c0.7-7.6,6-8.7,11.2-8.7c3.5,0,9.9,1.1,9.9,7.2V161.5z M111.9,154.2c-0.7,0.5-1.7,0.9-4.5,1.4c-2.4,0.4-4.5,1-4.5,3.8
					c0,2.3,1.8,3,3,3c2.9,0,5.9-1.9,5.9-4.9V154.2z"/>
				<path class="st0" d="M129.8,166.4h-6.6v-33.7h6.6V166.4z"/>
				<path class="st0" d="M143.4,141.4h4.1v4.7h-4.1v13.6c0,1.5,0,2,2.7,2c0.4,0,0.9,0,1.4-0.1v5c-1,0-2.1,0.1-3.1,0.1h-0.8
					c-5.7,0-6.7-2.2-6.7-5.4v-15.1h-3.4v-4.7h3.4v-6.8h6.6V141.4z"/>
			</g>
			<g>
				<path class="st0" d="M171.1,144.9L171.1,144.9c1.1-1.6,3.1-3.9,7.3-3.9c5.5,0,10.4,4.2,10.4,12.8c0,6.8-3.1,13.4-10.5,13.4
					c-2.7,0-5.6-1-7.2-3.8H171v3.1h-6.4v-33.7h6.6V144.9z M176.5,146.7c-4.5,0-5.6,4-5.6,8c0,3.7,1.6,7.2,5.8,7.2
					c4.2,0,5.4-4.6,5.4-7.5C182.1,150.4,180.7,146.7,176.5,146.7z"/>
				<path class="st0" d="M206.1,166.2c-3.1,9.2-3.9,10.5-9.7,10.5c-0.9,0-2,0-3-0.1v-5.3c0.3,0,0.7,0.1,1.3,0.1
					c2.4,0,3.7-0.3,4.3-3.8l-9.2-26h7.3l5.3,18.4h0.1l5.1-18.4h6.9L206.1,166.2z"/>
				<path class="st0" d="M218.5,141.6h6.3v4.3h0.1c1.4-2.5,2.9-5,6.8-5c0.4,0,0.8,0,1.3,0.1v6.7c-0.6-0.1-1.3-0.1-1.9-0.1
					c-5.1,0-6,3.2-6,6v13h-6.6V141.6z"/>
				<path class="st0" d="M257,161.7c0,3,0.7,3.6,1.5,3.9v1h-7.1c-0.4-1.2-0.5-1.5-0.6-3c-1.5,1.5-3.6,3.6-8.1,3.6
					c-3.8,0-7.6-2.1-7.6-7.3c0-4.9,3.1-7.4,7.3-8l5.9-0.9c1-0.1,2.3-0.6,2.3-2c0-2.8-2.6-2.9-4.3-2.9c-3.3,0-3.8,2-4,3.5h-6.3
					c0.8-7.6,6-8.7,11.2-8.7c3.5,0,9.9,1.1,9.9,7.2V161.7z M250.6,154.4c-0.7,0.5-1.7,0.9-4.5,1.4c-2.4,0.4-4.5,1-4.5,3.8
					c0,2.3,1.8,3,3,3c2.9,0,5.9-1.9,5.9-4.9V154.4z M246.8,137.9c-2.3,0-5.1-1.9-5.1-4.9c0-3,2.7-4.9,5.1-4.9c2.3,0,5.1,1.9,5.1,4.9
					C251.9,136,249.2,137.9,246.8,137.9z M246.8,130.6c-1.4,0-2.4,1.1-2.4,2.4c0,1.4,1.1,2.4,2.4,2.4s2.4-1.1,2.4-2.4
					C249.3,131.7,248.2,130.6,246.8,130.6z"/>
			</g>
		</g>
	</g>
	<rect x="125" y="2.9" transform="matrix(0.7071 0.7071 -0.7071 0.7071 43.834 -89.7179)" class="st1" width="10.4" height="10.4"/>
	
		<rect x="115.2" y="12.7" transform="matrix(0.7071 0.7071 -0.7071 0.7071 47.9203 -79.8526)" class="st2" width="10.4" height="10.4"/>
	
		<rect x="105.3" y="22.6" transform="matrix(0.7071 0.7071 -0.7071 0.7071 52.0066 -69.9873)" class="st3" width="10.4" height="10.4"/>
	
		<rect x="95.4" y="32.5" transform="matrix(0.7071 0.7071 -0.7071 0.7071 56.093 -60.1221)" class="st4" width="10.4" height="10.4"/>
	
		<rect x="85.6" y="42.3" transform="matrix(0.7071 0.7071 -0.7071 0.7071 60.1793 -50.2568)" class="st5" width="10.4" height="10.4"/>
	
		<rect x="75.7" y="52.2" transform="matrix(0.7071 0.7071 -0.7071 0.7071 64.2656 -40.3915)" class="st6" width="10.4" height="10.4"/>
	
		<rect x="134.9" y="12.7" transform="matrix(0.7071 0.7071 -0.7071 0.7071 53.7012 -93.805)" class="st7" width="10.4" height="10.4"/>
	
		<rect x="125" y="22.6" transform="matrix(0.7071 0.7071 -0.7071 0.7071 57.7875 -83.9397)" class="st8" width="10.4" height="10.4"/>
	
		<rect x="115.2" y="32.5" transform="matrix(0.7071 0.7071 -0.7071 0.7071 61.8739 -74.0745)" class="st9" width="10.4" height="10.4"/>
	
		<rect x="105.3" y="42.3" transform="matrix(0.7071 0.7071 -0.7071 0.7071 65.9602 -64.2092)" class="st10" width="10.4" height="10.4"/>
	
		<rect x="95.4" y="52.2" transform="matrix(0.7071 0.7071 -0.7071 0.7071 70.0465 -54.3439)" class="st11" width="10.4" height="10.4"/>
	
		<rect x="85.6" y="62" transform="matrix(0.7071 0.7071 -0.7071 0.7071 74.1328 -44.4787)" class="st12" width="10.4" height="10.4"/>
	
		<rect x="144.7" y="22.6" transform="matrix(0.7071 0.7071 -0.7071 0.7071 63.5631 -97.89)" class="st13" width="10.4" height="10.4"/>
	
		<rect x="134.9" y="32.4" transform="matrix(0.7071 0.7071 -0.7071 0.7071 67.6495 -88.0247)" class="st14" width="10.4" height="10.4"/>
	
		<rect x="125" y="42.3" transform="matrix(0.7071 0.7071 -0.7071 0.7071 71.7358 -78.1594)" class="st15" width="10.4" height="10.4"/>
	
		<rect x="115.2" y="52.2" transform="matrix(0.7071 0.7071 -0.7071 0.7071 75.8221 -68.2942)" class="st16" width="10.4" height="10.4"/>
	
		<rect x="105.3" y="62" transform="matrix(0.7071 0.7071 -0.7071 0.7071 79.9085 -58.4289)" class="st17" width="10.4" height="10.4"/>
	
		<rect x="95.4" y="71.9" transform="matrix(0.7071 0.7071 -0.7071 0.7071 83.9948 -48.5636)" class="st18" width="10.4" height="10.4"/>
	
		<rect x="105.3" y="81.8" transform="matrix(0.7071 0.7071 -0.7071 0.7071 93.8567 -52.6486)" class="st19" width="10.4" height="10.4"/>
	
		<rect x="115.1" y="91.6" transform="matrix(0.7071 0.7071 -0.7071 0.7071 103.7187 -56.7335)" class="st20" width="10.4" height="10.4"/>
	
		<rect x="125" y="101.5" transform="matrix(0.7071 0.7071 -0.7071 0.7071 113.5806 -60.8185)" class="st21" width="10.4" height="10.4"/>
	
		<rect x="115.1" y="71.9" transform="matrix(0.7071 0.7071 -0.7071 0.7071 89.7704 -62.5138)" class="st22" width="10.4" height="10.4"/>
	
		<rect x="125" y="81.8" transform="matrix(0.7071 0.7071 -0.7071 0.7071 99.6323 -66.5988)" class="st23" width="10.4" height="10.4"/>
	
		<rect x="125" y="62" transform="matrix(0.7071 0.7071 -0.7071 0.7071 85.6841 -72.3791)" class="st24" width="10.4" height="10.4"/>
	
		<rect x="134.9" y="71.9" transform="matrix(0.7071 0.7071 -0.7071 0.7071 95.546 -76.4641)" class="st25" width="10.4" height="10.4"/>
	
		<rect x="144.7" y="81.8" transform="matrix(0.7071 0.7071 -0.7071 0.7071 105.408 -80.549)" class="st26" width="10.4" height="10.4"/>
	
		<rect x="145" y="101.8" transform="matrix(0.7071 0.7071 -0.7071 0.7071 119.6311 -74.9098)" class="st27" width="10.4" height="10.4"/>
</g>
</svg>
